<svg xmlns="http://www.w3.org/2000/svg" xml:space="preserve" fill-rule="evenodd" stroke-linecap="round" stroke-linejoin="round" stroke-miterlimit="10" clip-rule="evenodd" viewBox="0 0 2762 491"><defs><path id="a" d="M164.359 17.061 72.704 36.542c-3.095.659-5.101 3.747-4.443 6.843l9.982 46.963c.659 3.095 3.747 5.101 6.843 4.443l110.229-23.429a10.95 10.95 0 0 1 11.896 5.472l8.86 16.253c1.518 2.783 5.056 3.825 7.84 2.308l7.786-3.384c7.942-4.329 11.079-13.3 6.748-21.242l-14.286-26.203c-11.658-21.383-35.978-32.568-59.8-27.505"/></defs><path fill="#b00" fill-rule="nonzero" d="M520.706 133.507v263.567H553.5V139.569a6.06 6.06 0 0 0-6.061-6.062zM56.5 139.568v257.506h32.794V133.506H62.561a6.06 6.06 0 0 0-6.061 6.062"/><path fill="none" stroke="#000" stroke-width="15" d="M553.5 216.404v-76.837c0-3.324-2.736-6.06-6.06-6.06h-26.734v263.567H553.5v-145.67m-464.206-35v-82.897H62.56c-3.324 0-6.06 2.736-6.06 6.06v257.507h32.794v-145.67"/><g fill-rule="nonzero"><path fill="#f89d00" d="m112.715 74.519 55.15 259.463 39.438-8.383-55.15-259.463z"/><path fill="#d58700" d="m112.715 74.519 8.464 39.818 39.437-8.382-8.463-39.819z"/></g><path fill="none" stroke="#000" stroke-width="15" d="M207.304 325.599 152.153 66.136l-39.437 8.383 55.15 259.463"/><path fill="#b7cee9" fill-rule="nonzero" d="m78.998 49.805-32.558 6.92a2.33 2.33 0 0 1-2.75-1.786l-1.96-9.222a2.534 2.534 0 0 0-3.005-1.952l-24.19 5.143a2.54 2.54 0 0 0-1.951 3.003l11.328 53.293a2.53 2.53 0 0 0 3.004 1.952l24.19-5.142a2.534 2.534 0 0 0 1.952-3.005l-1.961-9.222a2.33 2.33 0 0 1 1.786-2.751l32.558-6.919z"/><path fill="none" stroke="#000" stroke-width="15" d="m78.998 49.805-32.558 6.92a2.33 2.33 0 0 1-2.75-1.786l-1.96-9.222a2.534 2.534 0 0 0-3.005-1.952l-24.19 5.143a2.54 2.54 0 0 0-1.951 3.003l11.328 53.293a2.53 2.53 0 0 0 3.004 1.952l24.19-5.142a2.534 2.534 0 0 0 1.952-3.005l-1.961-9.222a2.33 2.33 0 0 1 1.786-2.751l32.558-6.919z"/><g fill="#d7e3f2" fill-rule="nonzero"><use href="#a"/><use href="#a"/></g><path fill="none" stroke="#000" stroke-width="15" d="m102.999 30.103-30.294 6.439c-3.096.658-5.102 3.747-4.444 6.843l9.983 46.963c.659 3.095 3.747 5.1 6.842 4.443l110.229-23.429a10.95 10.95 0 0 1 11.896 5.472l8.86 16.253c1.518 2.783 5.056 3.825 7.84 2.308l7.786-3.384c7.943-4.329 11.079-13.3 6.749-21.242l-14.287-26.203c-11.658-21.383-35.977-32.568-59.8-27.505L138 22.664"/><g fill-rule="nonzero"><path fill="#e00000" d="M553.5 295.445h-497v172.631c0 3.878 3.192 7.07 7.07 7.07h482.86c3.878 0 7.07-3.192 7.07-7.07z"/><path fill="#b00" d="M546.429 444.992H63.572a7.07 7.07 0 0 1-7.072-7.071v30.155a7.07 7.07 0 0 0 7.072 7.07H546.43c3.878 0 7.07-3.192 7.07-7.07v-30.155a7.07 7.07 0 0 1-7.071 7.071"/></g><path fill="none" stroke="#000" stroke-width="15" d="M553.5 295.445h-497v172.631c0 3.878 3.192 7.07 7.07 7.07h482.86c3.878 0 7.07-3.192 7.07-7.07z"/><path fill="#b00" fill-rule="nonzero" d="M249.87 347.278v33c0 2.743 2.257 5 5 5h100.261c2.743 0 5-2.257 5-5v-33c0-2.743-2.257-5-5-5H254.87c-2.743 0-5 2.257-5 5"/><g stroke="#000" stroke-width="15"><path fill="none" d="M249.87 347.278v33c0 2.743 2.257 5 5 5h100.261c2.743 0 5-2.257 5-5v-33c0-2.743-2.257-5-5-5H254.87c-2.743 0-5 2.257-5 5"/><path fill="#7d8c97" fill-rule="nonzero" d="M89.294 133.507h431.412v36.366H89.294z"/></g><clipPath id="b"><path d="M48.391 1h554.191v287.599H48.391z"/></clipPath><g clip-path="url(#b)"><clipPath id="c"><path d="m122.46 223.269 266.731-81.704 81.703 266.732L204.163 490z"/></clipPath><g clip-path="url(#c)"><path fill="#ffdb05" fill-rule="nonzero" d="m401.112 309.199 20.426-6.257c5.753-1.762 8.987-7.856 7.222-13.609l-7.905-25.756c-1.764-5.748-7.853-8.979-13.602-7.218l-20.445 6.262a104 104 0 0 0-20.928-25.318l10.016-18.862c2.822-5.314.8-11.909-4.515-14.729l-23.799-12.627c-5.313-2.819-11.904-.798-14.724 4.512l-10.021 18.874a104 104 0 0 0-32.67-3.127l-6.26-20.436c-1.762-5.751-7.852-8.985-13.603-7.223l-25.76 7.89c-5.752 1.762-8.986 7.852-7.224 13.604l6.26 20.435a104 104 0 0 0-25.314 20.889l-18.874-10.022c-5.311-2.82-11.903-.803-14.725 4.508l-12.644 23.789c-2.824 5.313-.805 11.909 4.509 14.731l18.862 10.016a104 104 0 0 0-3.158 32.697l-20.446 6.262c-5.748 1.761-8.983 7.848-7.225 13.598l7.876 25.764c1.76 5.755 7.852 8.992 13.605 7.23l20.427-6.257a104 104 0 0 0 20.925 25.376l-10.022 18.873c-2.821 5.311-.803 11.903 4.507 14.725l23.79 12.645c5.314 2.823 11.909.805 14.73-4.509l10.017-18.862a104 104 0 0 0 32.768 3.153l6.26 20.436c1.762 5.751 7.852 8.985 13.603 7.223l25.76-7.89c5.752-1.762 8.986-7.852 7.224-13.603l-6.26-20.436a104 104 0 0 0 25.381-20.965l18.862 10.016c5.314 2.822 11.909.8 14.729-4.515l12.627-23.8c2.819-5.312.798-11.903-4.513-14.723l-18.873-10.022a104 104 0 0 0 3.124-32.742"/><path fill="#b3b6c3" d="M276.901 251.218c35.634-10.915 73.425 9.154 84.34 44.787s-9.153 73.426-44.787 84.341-73.425-9.153-84.34-44.787 9.153-73.426 44.787-84.341"/><path fill="#fff" d="M283.918 274.128c22.99-7.042 47.372 5.905 54.414 28.895s-5.906 47.371-28.895 54.413-47.371-5.905-54.413-28.895 5.905-47.371 28.894-54.413"/><path fill-rule="nonzero" d="M318.049 385.553c-18.636 5.708-38.38 3.818-55.594-5.323s-29.839-24.44-35.548-43.076-3.818-38.38 5.324-55.595c14.472-27.253 44.692-42.511 75.198-37.969 2.953.442 5.021 3.234 4.584 6.188-.442 2.954-3.235 5.022-6.189 4.584-25.952-3.865-51.662 9.118-63.975 32.305-7.777 14.645-9.386 31.442-4.529 47.298s15.597 28.87 30.242 36.646a61.7 61.7 0 0 0 47.297 4.529c15.855-4.857 28.87-15.597 36.646-30.242 12.783-24.071 8.534-53.276-10.571-72.676a5.445 5.445 0 0 1 .059-7.701 5.445 5.445 0 0 1 7.701.059c10.813 10.98 17.77 24.873 20.121 40.179 2.397 15.612-.262 31.258-7.69 45.247-9.141 17.214-24.439 29.838-43.076 35.547m12.173-124.052a5.44 5.44 0 0 1-4.174-.411l-.255-.136c-2.637-1.403-3.655-4.725-2.256-7.364 1.403-2.637 4.725-3.654 7.364-2.255l.306.164a5.444 5.444 0 0 1-.985 10.002m-19.078 101.147a49.4 49.4 0 0 1-15.812 2.136 5.446 5.446 0 0 1 .291-10.887c14.58.389 27.884-7.364 34.72-20.237 4.776-8.992 5.764-19.306 2.782-29.042a37.9 37.9 0 0 0-18.57-22.502c-8.993-4.775-19.306-5.763-29.042-2.781s-17.727 9.577-22.502 18.57c-6.772 12.752-5.815 28.016 2.496 39.837a5.444 5.444 0 1 1-8.908 6.264c-10.683-15.194-11.912-34.816-3.206-51.209 6.139-11.563 16.413-20.041 28.931-23.875a48.7 48.7 0 0 1 37.34 3.575c11.562 6.14 20.041 16.414 23.875 28.931s2.564 25.778-3.576 37.341c-6.225 11.722-16.623 20.143-28.819 23.879m-33.093-3.071a5.43 5.43 0 0 1-4.126-.386l-.233-.123c-2.637-1.403-3.655-4.725-2.256-7.364 1.403-2.637 4.725-3.655 7.364-2.256l.188.1a5.444 5.444 0 0 1-.937 10.029m72.357 85.62-25.761 7.89c-8.613 2.639-17.767-2.222-20.405-10.835l-5.026-16.409a109.2 109.2 0 0 1-25.964-2.499l-8.039 15.139a16.24 16.24 0 0 1-9.644 7.958 16.23 16.23 0 0 1-12.451-1.194l-23.79-12.645c-7.902-4.214-10.95-14.173-6.761-22.088l8.047-15.154a109.3 109.3 0 0 1-16.576-20.1l-16.397 5.022a16.22 16.22 0 0 1-12.45-1.194 16.23 16.23 0 0 1-7.958-9.65l-7.876-25.765c-2.632-8.61 2.23-17.759 10.838-20.396l16.421-5.03c-.2-8.7.637-17.376 2.5-25.89l-15.139-8.039a16.24 16.24 0 0 1-7.959-9.647 16.23 16.23 0 0 1 1.195-12.449l12.645-23.79c4.225-7.952 14.134-10.985 22.087-6.761l15.154 8.047a109.3 109.3 0 0 1 20.039-16.537l-5.026-16.407c-2.638-8.613 2.223-17.767 10.836-20.406l25.761-7.89c8.613-2.639 17.767 2.222 20.405 10.835l5.026 16.409c8.691-.205 17.357.624 25.863 2.476l8.047-15.154c4.211-7.903 14.169-10.955 22.085-6.769l23.8 12.627a16.23 16.23 0 0 1 7.962 9.644 16.23 16.23 0 0 1-1.19 12.449l-8.04 15.139a109.2 109.2 0 0 1 16.572 20.048l16.421-5.03c8.608-2.637 17.761 2.221 20.402 10.827l7.905 25.756a16.23 16.23 0 0 1-1.187 12.451 16.23 16.23 0 0 1-9.646 7.963l-16.396 5.022a109.3 109.3 0 0 1-2.475 25.936l15.154 8.047c7.903 4.211 10.955 14.169 6.769 22.085l-12.626 23.8a16.23 16.23 0 0 1-9.644 7.962 16.24 16.24 0 0 1-12.449-1.191l-15.139-8.039a109.2 109.2 0 0 1-20.11 16.612l5.027 16.408c2.636 8.613-2.224 17.767-10.837 20.406m-81.581-33.338a5.44 5.44 0 0 1 2.965-.062 98.5 98.5 0 0 0 31.054 2.988 5.446 5.446 0 0 1 5.55 3.84l6.26 20.436a5.45 5.45 0 0 0 6.802 3.612l25.76-7.891a5.45 5.45 0 0 0 3.612-6.802l-6.259-20.435a5.446 5.446 0 0 1 2.447-6.29 98.5 98.5 0 0 0 24.052-19.869 5.465 5.465 0 0 1 6.642-1.212l18.862 10.016a5.4 5.4 0 0 0 4.15.397 5.42 5.42 0 0 0 3.214-2.654l12.627-23.8a5.45 5.45 0 0 0-2.256-7.361l-18.874-10.023a5.445 5.445 0 0 1-2.717-6.175 98.4 98.4 0 0 0 2.96-31.029 5.45 5.45 0 0 1 3.84-5.555l20.426-6.256a5.4 5.4 0 0 0 3.215-2.654 5.4 5.4 0 0 0 .396-4.15l-7.905-25.757a5.45 5.45 0 0 0-6.801-3.608l-20.445 6.262a5.45 5.45 0 0 1-6.288-2.444 98.4 98.4 0 0 0-19.834-23.993 5.465 5.465 0 0 1-1.212-6.642l10.016-18.862a5.41 5.41 0 0 0-2.257-7.364l-23.799-12.627a5.45 5.45 0 0 0-7.362 2.256l-10.022 18.875a5.445 5.445 0 0 1-6.176 2.717 98.5 98.5 0 0 0-30.96-2.964 5.446 5.446 0 0 1-5.551-3.84l-6.26-20.436a5.45 5.45 0 0 0-6.802-3.612l-25.76 7.891a5.453 5.453 0 0 0-3.612 6.802l6.26 20.436a5.446 5.446 0 0 1-2.448 6.29 98.5 98.5 0 0 0-23.989 19.795 5.45 5.45 0 0 1-6.638 1.208l-18.873-10.022a5.45 5.45 0 0 0-7.363 2.253l-12.645 23.791a5.4 5.4 0 0 0-.398 4.149 5.4 5.4 0 0 0 2.653 3.216l18.862 10.016a5.446 5.446 0 0 1 2.716 6.181 98.4 98.4 0 0 0-2.993 30.986 5.445 5.445 0 0 1-3.841 5.546l-20.443 6.262a5.454 5.454 0 0 0-3.613 6.8l7.877 25.764a5.42 5.42 0 0 0 5.184 3.862c.549 0 1.094-.084 1.618-.248l20.427-6.257a5.45 5.45 0 0 1 6.291 2.451A98.5 98.5 0 0 0 231 390.111a5.445 5.445 0 0 1 1.208 6.638l-10.022 18.874a5.45 5.45 0 0 0 2.253 7.362l23.791 12.645a5.4 5.4 0 0 0 4.149.398 5.4 5.4 0 0 0 3.216-2.653l10.016-18.862a5.44 5.44 0 0 1 3.216-2.654"/></g><g fill-rule="nonzero"><path fill="#7c5748" d="m331.028 101.547 46.069 15.854s31.781-6.692 34.148-47.156c2.41-40.449-35.739-58.435-35.739-58.435-.711 18.016-5.801 18.692-20.98 31.049s-33.75 37.677-23.498 58.688"/><path fill="#5f4c44" d="m359.686 111.409 17.412 5.992s31.782-6.691 34.148-47.156c2.411-40.449-35.738-58.434-35.738-58.434 32.273 36.893-5.32 85.875-15.822 99.598"/><path fill="#00a5f1" d="M407.419 88.985c1.997-5.238 3.393-11.41 3.827-18.74 2.41-40.449-35.739-58.434-35.739-58.434-.712 18.015-5.801 18.691-20.98 31.048a82 82 0 0 0-7.65 7.129c2.17 2.446 3.834 6.078 3.708 11.522 0 0 14.139-2.418 26.644 1.885 2.997 1.032 5.203 2.665 7.143 4.644 6.184 6.304 9.196 16.179 23.047 20.946"/><path fill="#0094d8" d="M407.419 88.985c1.997-5.238 3.393-11.41 3.827-18.74 2.41-40.449-35.739-58.434-35.739-58.434 15.513 17.722 14.878 38.192 8.865 56.228 6.184 6.304 9.196 16.179 23.047 20.946"/><path fill="#c0c9d2" d="m321.254 134.516 47.508 16.35c3.74 1.287 7.876-.732 9.163-4.472l6.488-18.85c.26-.755.392-1.548.392-2.346a7.225 7.225 0 0 0-4.864-6.818l-47.508-16.349c-3.74-1.287-7.876.732-9.163 4.471l-6.488 18.851c-1.287 3.74.732 7.876 4.472 9.163"/><path fill="#a6aeba" d="m365.308 121.077-6.42 18.657a7.313 7.313 0 0 1-9.295 4.535l19.072 6.563a7.31 7.31 0 0 0 9.294-4.535l6.421-18.657a7.313 7.313 0 0 0-4.535-9.294l-19.072-6.563a7.31 7.31 0 0 1 4.535 9.294"/><path fill="#f89e00" d="M324.347 135.58c-11.322 7.729-23.596 27.224-38.115 69.412-25.168 73.133-35.058 150.447-16.621 156.791s58.219-60.681 83.387-133.814c14.518-42.188 16.842-65.108 12.674-78.168"/><path fill="#d38302" d="M336.293 222.22c14.518-42.187 19.332-64.251 19.042-75.976l10.336 3.557c4.169 13.06 1.845 35.979-12.674 78.168-25.168 73.133-64.949 140.158-83.387 133.814 9.214 3.17 41.515-66.43 66.683-139.563"/><path d="M268.259 365.699c7.978 2.746 17.565-3.002 29.311-17.572 9.288-11.519 19.504-28.127 29.666-48.198a4.146 4.146 0 0 0-1.858-5.584c-2.028-1-4.519-.167-5.539 1.851-24.764 48.965-42.73 63.785-48.883 61.667-4.802-1.652-9.061-15.466-5.268-48.963 3.376-29.812 12.292-67.194 24.461-102.559 12.241-35.571 23.68-57.245 34.909-66.134l37.205 12.804c3.381 13.915-.94 38.038-13.182 73.611-6.071 17.64-13.273 35.637-20.923 52.308a4.136 4.136 0 0 0 2.011 5.467h.001a4.147 4.147 0 0 0 5.528-2.031 588 588 0 0 0 21.219-53.047c11.784-34.244 16.388-58.069 14.209-73.928 4.703-.013 9.103-2.957 10.718-7.648l6.487-18.852c1.289-3.745.493-7.707-1.76-10.633a50 50 0 0 0 7.124-4.31 4.15 4.15 0 0 0 .69-6.087h-.001c-1.42-1.623-3.833-1.867-5.58-.603-4.971 3.597-9.556 5.235-11.518 5.826l-43.209-14.869c-5.449-13.415 2.155-29.18 11.956-41.016.302 1.235.446 2.589.409 4.068-.018.708.09 1.422.406 2.055a4.16 4.16 0 0 0 4.43 2.271c.131-.023 13.226-2.195 24.597 1.719 4.422 1.521 6.85 4.886 9.924 9.144 3.522 4.882 7.796 10.799 16.226 14.799a45 45 0 0 1-1.562 2.987c-1.058 1.851-.504 4.206 1.246 5.424l.003.002a4.15 4.15 0 0 0 2.366.741 4.15 4.15 0 0 0 3.602-2.089c4.508-7.88 7.105-17.207 7.732-27.794 1.046-17.73-5.222-34.16-18.13-47.513-9.647-9.982-19.558-14.717-19.974-14.914a4.15 4.15 0 0 0-3.917.205 4.14 4.14 0 0 0-1.992 3.377c-.529 13.196-2.91 15.039-12.929 22.801l-6.546 5.17c-9.257 7.544-17.414 17.555-22.381 27.468-5.619 11.215-7.016 21.958-4.146 31.399-.096.044-.195.079-.291.125a11.28 11.28 0 0 0-5.757 6.51l-6.488 18.851c-1.614 4.692.043 9.722 3.743 12.625-11.479 11.161-22.51 32.773-34.294 67.016-12.357 35.912-21.417 73.936-24.859 104.322-3.904 34.496-.269 53.919 10.808 57.731m88.902-319.624c2.36-1.924 4.499-3.58 6.386-5.042 9.052-7.013 13.907-10.773 15.56-22.321 9.841 6.455 29.701 23.083 28.033 51.325-.283 4.8-1.019 9.281-2.195 13.428-6.063-3.044-9.17-7.346-12.426-11.858-3.461-4.796-7.039-9.755-13.947-12.133-9.004-3.098-18.626-2.998-24.131-2.572-.373-2.353-1.104-4.505-2.184-6.446a76 76 0 0 1 4.904-4.381m-36.46 80.626 6.487-18.852a3.04 3.04 0 0 1 1.555-1.758 3.04 3.04 0 0 1 2.343-.143l47.508 16.348c1.6.551 2.453 2.3 1.903 3.899l-6.488 18.851a3.06 3.06 0 0 1-1.555 1.758 3.05 3.05 0 0 1-2.343.144l-47.509-16.35a3.085 3.085 0 0 1-1.901-3.897"/></g><clipPath id="d"><path d="M338.743 110.391 329.8 355.224l-244.833-8.943 8.943-244.833z"/></clipPath><g fill-rule="nonzero" clip-path="url(#d)"><path fill="#cfd8dc" d="m199.991 236.632 21.148-19.657a5.106 5.106 0 0 0 .263-7.213l-67.366-72.473.295-8.09a5.11 5.11 0 0 0-2.649-4.663l-40.059-21.893a5.1 5.1 0 0 0-5.921.744l-10.574 9.828a5.1 5.1 0 0 0-1.174 5.851l18.912 41.551a5.11 5.11 0 0 0 4.458 2.982l8.089.295 67.365 72.475a5.104 5.104 0 0 0 7.213.263"/><path fill="#ff02ad" d="m315.572 345.996 6.207-5.769c11.646-11.351 12.322-29.849 1.535-42.019l-61.852-66.563a5.1 5.1 0 0 0-3.557-1.621c-8.451-.309-15.051-7.41-14.743-15.861a5.1 5.1 0 0 0-1.357-3.666l-9.829-10.573a5.104 5.104 0 0 0-7.212-.264l-42.296 39.315a5.103 5.103 0 0 0-.263 7.212l9.828 10.574a5.1 5.1 0 0 0 3.547 1.631c8.451.309 15.051 7.41 14.743 15.861a5.1 5.1 0 0 0 1.357 3.666l61.862 66.542c11.183 12.019 29.99 12.706 42.02 1.535z"/><path fill="#c62828" d="M241.858 249.868a5.105 5.105 0 0 1 8.844-3.293l58.972 63.443a5.105 5.105 0 0 1-7.355 7.079l-.121-.129-58.972-63.444a5.1 5.1 0 0 1-1.368-3.656m-15.861 14.743a5.105 5.105 0 0 1 8.844-3.293l58.972 63.444a5.104 5.104 0 1 1-7.355 7.078l-.121-.129-58.972-63.444a5.1 5.1 0 0 1-1.368-3.656"/><path d="M180.837 242.532a5.1 5.1 0 0 1 1.621-3.557l42.296-39.315a5.104 5.104 0 0 1 7.212.264l9.829 10.574a5.1 5.1 0 0 1 1.367 3.666c-.308 8.451 6.292 15.552 14.743 15.86a5.1 5.1 0 0 1 3.557 1.622l61.852 66.552c10.627 12.227 9.956 30.599-1.535 42.019l-6.217 5.779c-12.03 11.171-30.837 10.484-42.02-1.535l-61.861-66.552a5.1 5.1 0 0 1-1.358-3.656c.308-8.451-6.292-15.552-14.743-15.861a5.1 5.1 0 0 1-3.557-1.621l-9.829-10.574a5.1 5.1 0 0 1-1.357-3.665m47.133-31.917-34.821 32.366 5.013 5.393c12.293 1.528 21.714 11.663 22.341 24.035l60.515 65.104c7.345 7.891 19.693 8.342 27.595 1.008l6.217-5.78c7.536-7.503 7.976-19.561 1.008-27.594l-60.515-65.104c-12.293-1.527-21.714-11.663-22.341-24.035z"/><path d="M93.496 116.762a5.1 5.1 0 0 1 1.622-3.557l10.573-9.829a5.1 5.1 0 0 1 5.921-.743l40.06 21.893a5.11 5.11 0 0 1 2.659 4.673l-.295 8.09 67.366 72.474a5.104 5.104 0 0 1-7.475 6.949l-68.802-74.018a5.1 5.1 0 0 1-1.367-3.666l.257-7.049-34.051-18.61-5.181 4.816 16.076 35.318 7.039.257a5.1 5.1 0 0 1 3.557 1.622l68.8 74.017a5.104 5.104 0 0 1-7.475 6.949l-67.368-72.453-8.089-.295a5.1 5.1 0 0 1-4.457-2.982l-18.912-41.551a5.1 5.1 0 0 1-.458-2.305m148.362 133.106a5.105 5.105 0 0 1 8.844-3.293l58.972 63.443a5.105 5.105 0 0 1-7.355 7.079l-.121-.129-58.972-63.444a5.1 5.1 0 0 1-1.368-3.656m-15.861 14.743a5.105 5.105 0 0 1 8.844-3.293l58.972 63.444a5.104 5.104 0 1 1-7.355 7.078l-.121-.129-58.972-63.444a5.1 5.1 0 0 1-1.368-3.656"/></g><g fill-rule="nonzero"><path fill="#dfe9f4" d="M562.573 120.232 474.692 327.29c-10.861 25.591-40.411 37.532-66.002 26.671s-37.532-40.412-26.671-66.003L469.9 80.9z"/><path fill="#24c100" d="m419.861 198.798-37.842 89.16c-10.861 25.591 1.08 55.141 26.671 66.002s55.14-1.079 66.002-26.67l53.493-126.037z"/><path fill="#21af00" d="m528.18 201.254-53.499 126.05c-10.864 25.596-40.385 37.525-65.981 26.662-16.865-7.158-27.793-22.426-30.186-39.277a51 51 0 0 0 14.756 9.571c25.596 10.864 55.163-1.045 66.027-26.642l41.172-97.008z"/><path fill="#2dcef6" d="m578.717 120.131 12.276-28.925a6.4 6.4 0 0 0 .509-2.501 6.41 6.41 0 0 0-3.9-5.891L479.425 36.902c-3.231-1.371-7.019.159-8.391 3.39l-12.277 28.926a6.4 6.4 0 0 0-.509 2.501 6.41 6.41 0 0 0 3.9 5.891l108.177 45.913a6.4 6.4 0 0 0 8.392-3.392"/><path fill="#1ec5e0" d="m590.997 91.198-12.288 28.95c-1.365 3.217-5.116 4.771-8.378 3.386L462.156 77.622c-3.263-1.385-4.751-5.162-3.385-8.378l3.12-7.353 100.179 42.518c3.263 1.385 7.013-.169 8.398-3.431l9.147-21.552 7.996 3.393a6.37 6.37 0 0 1 3.386 8.379"/></g><path fill="#21af00" d="M523.331 129.908c7.009 2.981 10.328 11.196 7.359 18.21-2.981 7.009-11.196 10.328-18.21 7.359-7.009-2.981-10.328-11.196-7.359-18.21 2.981-7.009 11.196-10.328 18.21-7.359"/><path fill="#dfe9f4" d="M470.558 233.05c7.624 3.236 11.187 12.053 7.951 19.677s-12.052 11.186-19.676 7.951-11.187-12.053-7.951-19.677 12.053-11.186 19.676-7.951m-41.739 59.934c6.059 2.571 8.891 9.579 6.319 15.638s-9.578 8.89-15.638 6.318-8.89-9.578-6.318-15.637 9.578-8.891 15.637-6.319"/><path fill="#21af00" d="M473.695 150.963c5.226 2.222 7.701 8.348 5.485 13.576-2.222 5.225-8.347 7.7-13.575 5.485-5.226-2.222-7.701-8.347-5.486-13.576 2.222-5.226 8.348-7.701 13.576-5.485"/><path fill="#003" fill-rule="nonzero" d="m589.555 78.219-18.628-7.906a5 5 0 0 0-1.987-.413c-2.739 0-4.992 2.254-4.992 4.992a5 5 0 0 0 3.078 4.611l18.628 7.907a1.407 1.407 0 0 1 .742 1.845l-12.277 28.927a1.404 1.404 0 0 1-1.841.744l-108.18-45.913a1.417 1.417 0 0 1-.748-1.843l12.278-28.928a1.41 1.41 0 0 1 1.847-.746l72.345 30.705c.617.262 1.28.397 1.95.397 2.739 0 4.993-2.254 4.993-4.993a5 5 0 0 0-3.042-4.595l-72.345-30.705c-5.785-2.455-12.484.252-14.939 6.036L454.16 67.269c-2.454 5.78.253 12.479 6.038 14.934l3.159 1.341-11.156 26.284a5 5 0 0 0-.397 1.951c0 2.738 2.254 4.992 4.992 4.992a5 5 0 0 0 4.596-3.042l11.156-26.284 83.479 35.43-31.114 73.309-36.489-.826-.111-.001c-2.696 0-4.93 2.185-4.989 4.88l-.002.132c0 2.693 2.189 4.921 4.881 4.969l32.511.738-50.618 119.264c-9.769 23.017-36.438 33.794-59.455 24.025s-33.794-36.438-24.025-59.455l36.518-86.042 44.574 1.007.111.001c2.696 0 4.93-2.185 4.989-4.88a4.976 4.976 0 0 0-4.879-5.1l-40.596-.92 25.271-59.541a5 5 0 0 0 .397-1.951c0-2.738-2.254-4.992-4.993-4.992a5 5 0 0 0-4.595 3.042l-65.987 155.475c-11.919 28.084 1.231 60.627 29.315 72.546s60.627-1.23 72.546-29.314l85.931-202.465 3.159 1.341c5.78 2.453 12.479-.253 14.933-6.034l12.277-28.927c2.455-5.785-.252-12.484-6.032-14.937m-79.024 81.85c9.585 4.068 20.688-.419 24.757-10.004 4.033-9.535-.48-20.699-10.006-24.753-9.586-4.068-20.689.418-24.755 10s.418 20.688 10.004 24.757m10.85-25.566c4.486 1.912 6.612 7.169 4.716 11.662-1.912 4.488-7.173 6.613-11.666 4.714-4.514-1.916-6.63-7.152-4.714-11.666 1.914-4.485 7.172-6.609 11.664-4.71m-38.274 120.176c4.309-10.151-.447-21.919-10.598-26.228s-21.915.449-26.223 10.6.444 21.913 10.596 26.222 21.917-.443 26.225-10.594m-22.325 1.403c-5.084-2.158-7.463-8.045-5.305-13.13 2.151-5.053 8.073-7.447 13.132-5.31 5.084 2.158 7.465 8.052 5.308 13.136-2.154 5.052-8.077 7.444-13.135 5.304m-30.014 32.309c-8.585-3.644-18.538.378-22.181 8.963s.378 18.538 8.963 22.182 18.537-.378 22.181-8.963-.378-18.538-8.963-22.182m-9.318 21.954c-3.518-1.493-5.166-5.571-3.673-9.09 1.489-3.498 5.589-5.154 9.09-3.673 3.498 1.489 5.154 5.589 3.673 9.09-1.493 3.518-5.571 5.166-9.09 3.673m62.323-143.859c3.305-7.786-.343-16.812-8.128-20.116-7.791-3.307-16.817.341-20.121 8.126s.342 16.812 8.133 20.119c7.748 3.277 16.82-.389 20.116-8.129m-19.059-8.089a5.365 5.365 0 0 1 7.03-2.836c2.704 1.15 3.984 4.319 2.838 7.024a5.364 5.364 0 0 1-7.024 2.839 5.364 5.364 0 0 1-2.844-7.027"/></g><g fill-rule="nonzero"><path fill="#00a5f1" d="m1338.77 177.49-14.203 208.687 45.422.422 7.453-101.11 23.063 94.782q8.296 9.281 18.984 3.937l43.031-97.875-5.765 99.844 45.703-.422 12.797-208.547q-18.844-4.922-39.094.282l-57.797 118.406-32.766-118.125q-29.25-8.016-46.828-.281m197.52.984q-5.062 2.391-6.609 7.875l-12.657 192.797q1.407 7.734 7.454 8.859l131.484-5.203q14.907-21.797 3.234-46.687l-94.359 2.812 3.797-43.594 76.922-3.234q12.234-18.281 1.687-38.813l-75.515 1.547 2.531-36 91.969-2.953q9.28-19.266 2.39-41.344zm293.43 16.594q4.922 25.313-13.219 40.5-12.234-7.875-38.39-12.516-22.922-2.25-37.407 13.289t-17.718 40.289q-4.782 15.61 5.906 40.078 10.687 22.22 32.554 23.485t52.383-8.578q10.97 21.655 2.11 42.468-36.141 16.594-58.641 15.75-41.484-5.203-60.469-30.094-25.312-33.327-17.156-94.078 6.469-48.094 30.516-72.703 31.359-25.453 76.078-20.812 31.078 1.968 43.453 22.922m15.91-11.11-12.093 197.578q15.468 11.11 45.703 3.375l5.062-85.781 65.953-2.812-4.078 85.922q19.407 11.952 45.422-1.125l9.563-200.11q-19.97-10.828-41.625-.281l-5.344 73.266-66.797 3.375 4.078-78.61q-25.312-9.703-45.844 5.203m228.11-8.859-73.688 205.453q15.329 13.078 46.688 8.859l12.938-37.968 52.171-6.469 10.125 37.687q30.798 5.907 50.063-6.75l-56.25-202.5q-19.829-12.234-42.047 1.688m30.234 130.5-34.312 4.078 22.078-69.187zm81.926-121.641-12.093 197.578q15.468 11.11 45.703 3.375l7.875-115.031 62.859 114.75q24.75 9.844 39.094-3.094l12.094-200.531q-19.97-10.828-41.625-.281l-6.75 110.812-66.938-113.484q-30.234-7.875-40.219 5.906m154.43 199.125q19.827 10.266 48.515 2.11l16.594-206.86q-24.75-7.172-46.125-2.109zm222.2-188.015q4.922 25.313-13.219 40.5-12.234-7.875-38.39-12.516-22.922-2.25-37.407 13.289t-17.718 40.289q-4.782 15.61 5.906 40.078 10.687 22.22 32.555 23.485t52.382-8.578q10.97 21.656 2.11 42.468-36.141 16.594-58.641 15.75-41.484-5.203-60.469-30.094-25.312-33.327-17.156-94.078 6.469-48.094 30.516-72.703 31.359-25.453 76.078-20.812 31.078 1.968 43.453 22.922m10.08 168.468q-9.14-31.922 10.688-49.5 36.14 21.235 52.453 26.157 30.375-.281 33.328-15.188.703-11.953-18.562-23.062l-36.141-17.578q-33.891-18-35.156-50.766 1.265-18.844 13.008-33.891t26.437-19.758q14.695-4.711 34.945-3.445 37.125 2.25 65.11 21.094 1.124 26.578-16.594 46.266-34.172-25.595-54.703-23.907-19.266-2.25-20.391 13.782-.704 9.14 27.141 23.625 31.922 12.937 47.32 29.671t13.711 40.641q-2.25 32.344-30.094 49.641-17.718 12.375-51.187 10.265-31.922-4.078-61.313-24.047"/><path fill="#fff" d="M644.827 363.536q-9.14-31.922 10.688-49.5 36.14 21.235 52.453 26.157 30.375-.281 33.328-15.188.703-11.953-18.563-23.062l-36.14-17.578q-33.891-18-35.157-50.766 1.266-18.844 13.008-33.891t26.438-19.758 34.945-3.445q37.125 2.25 65.109 21.094 1.125 26.578-16.593 46.266-34.173-25.594-54.704-23.907-19.265-2.25-20.39 13.782-.703 9.14 27.14 23.625 31.923 12.937 47.321 29.671t13.711 40.641q-2.25 32.344-30.094 49.641-17.719 12.375-51.188 10.265-31.921-4.078-61.312-24.047m160.47-184.64q-14.344 18.421 1.266 44.719l51.047-1.125-9.141 161.437q25.453 9.422 46.828.281l7.594-163.547 51.89-.703q10.829-22.64 1.125-45.14zm178.47-.422q-5.062 2.391-6.609 7.875l-12.657 192.797q1.407 7.734 7.454 8.859l131.484-5.203q14.906-21.797 3.234-46.687l-94.359 2.812 3.797-43.594 76.922-3.234q12.234-18.281 1.687-38.813l-75.515 1.547 2.531-36 91.969-2.953q9.28-19.266 2.39-41.344zm152.313-.984-14.203 208.687 45.421.422 7.454-101.11 23.062 94.782q8.297 9.281 18.985 3.937l43.031-97.875-5.766 99.844 45.703-.422 12.797-208.547q-18.843-4.922-39.094.282l-57.796 118.406-32.766-118.125q-29.25-8.016-46.828-.281"/></g></svg>