<?xml version="1.0" encoding="UTF-8"?><svg xmlns="http://www.w3.org/2000/svg" xmlns:xlink="http://www.w3.org/1999/xlink" width="100%" height="100%" viewBox="0 0 2762 491" fill-rule="evenodd" stroke-linecap="round" stroke-linejoin="round" stroke-miterlimit="10" xmlns:v="https://vecta.io/nano"><style><![CDATA[.B{fill-rule:nonzero}.C{fill:none}.D{stroke:#000}.E{stroke-width:15}.F{fill:#21af00}]]></style><path d="M520.706 133.507v263.567H553.5V139.569c0-3.348-2.714-6.062-6.061-6.062h-26.733zM56.5 139.568v257.506h32.794V133.506H62.561c-3.348 0-6.061 2.714-6.061 6.062" fill="#b00" class="B"/><path d="M553.5 216.404v-76.836a6.06 6.06 0 0 0-6.061-6.061h-26.733v263.567H553.5v-145.67m-464.206-35v-82.897H62.561a6.06 6.06 0 0 0-6.061 6.061v257.506h32.794v-145.67" class="C D E"/><g class="B"><path d="M112.715 74.519l55.15 259.463 39.438-8.383-55.15-259.463-39.438 8.383z" fill="#f89d00"/><path d="M112.715 74.519l8.464 39.818 39.437-8.382-8.463-39.819-39.438 8.383z" fill="#d58700"/></g><path d="M207.304 325.599L152.153 66.136l-39.437 8.383 55.15 259.463" class="C D E"/><use xlink:href="#E" fill="#b7cee9" class="B"/><use xlink:href="#E" class="C D E"/><g fill="#d7e3f2" class="B"><use xlink:href="#F"/><use xlink:href="#F"/></g><path d="M102.999 30.103l-30.294 6.439a5.77 5.77 0 0 0-4.444 6.843l9.983 46.963a5.77 5.77 0 0 0 6.842 4.443l110.229-23.429c4.739-1.008 9.578 1.218 11.896 5.472l8.86 16.253a5.78 5.78 0 0 0 7.84 2.308l7.786-3.384c7.943-4.329 11.079-13.3 6.749-21.242l-14.287-26.203c-11.658-21.383-35.977-32.568-59.8-27.505L138 22.664" class="C D E"/><g class="B"><use xlink:href="#G" fill="#e00000"/><path d="M546.429 444.992H63.572c-3.906 0-7.072-3.166-7.072-7.071v30.155c0 3.905 3.166 7.07 7.072 7.07h482.857a7.07 7.07 0 0 0 7.071-7.07v-30.155c0 3.905-3.166 7.071-7.071 7.071" fill="#b00"/></g><use xlink:href="#G" class="C D E"/><path d="M249.87 347.278v33a5 5 0 0 0 5 5h100.261a5 5 0 0 0 5-5v-33a5 5 0 0 0-5-5H254.87a5 5 0 0 0-5 5" fill="#b00" class="B"/><g class="D E"><path d="M249.87 347.278v33a5 5 0 0 0 5 5h100.261a5 5 0 0 0 5-5v-33a5 5 0 0 0-5-5H254.87a5 5 0 0 0-5 5z" class="C"/><path d="M89.294 133.507h431.412v36.366H89.294z" fill="#7d8c97" class="B"/></g><clipPath id="A"><path d="M48.391 1h554.191v287.599H48.391z"/></clipPath><g clip-path="url(#A)"><clipPath id="B"><path d="M122.46 223.269l266.731-81.704 81.703 266.732L204.163 490 122.46 223.269z"/></clipPath><g clip-path="url(#B)"><path d="M401.112 309.199l20.426-6.257c5.753-1.762 8.987-7.856 7.222-13.609l-7.905-25.756c-1.764-5.748-7.853-8.979-13.602-7.218l-20.445 6.262c-5.67-9.632-12.768-18.137-20.928-25.318l10.016-18.862c2.822-5.314.8-11.909-4.515-14.729l-23.799-12.627c-5.313-2.819-11.904-.798-14.724 4.512l-10.021 18.874c-10.513-2.725-21.525-3.831-32.67-3.127l-6.26-20.436c-1.762-5.751-7.852-8.985-13.603-7.223l-25.76 7.89c-5.752 1.762-8.986 7.852-7.224 13.604l6.26 20.435a103.97 103.97 0 0 0-25.314 20.889l-18.874-10.022c-5.311-2.82-11.903-.803-14.725 4.508l-12.644 23.789c-2.824 5.313-.805 11.909 4.509 14.731l18.862 10.016a104 104 0 0 0-3.158 32.697l-20.446 6.262c-5.748 1.761-8.983 7.848-7.225 13.598l7.876 25.764c1.76 5.755 7.852 8.992 13.605 7.23l20.427-6.257a104 104 0 0 0 20.925 25.376l-10.022 18.873c-2.821 5.311-.803 11.903 4.507 14.725l23.79 12.645c5.314 2.823 11.909.805 14.73-4.509l10.017-18.862a103.97 103.97 0 0 0 32.768 3.153l6.26 20.436c1.762 5.751 7.852 8.985 13.603 7.223l25.76-7.89c5.752-1.762 8.986-7.852 7.224-13.603l-6.26-20.436a104 104 0 0 0 25.381-20.965l18.862 10.016c5.314 2.822 11.909.8 14.729-4.515l12.627-23.8c2.819-5.312.798-11.903-4.513-14.723l-18.873-10.022a104.01 104.01 0 0 0 3.124-32.742z" fill="#ffdb05" class="B"/><path d="M276.901 251.218c35.634-10.915 73.425 9.154 84.34 44.787s-9.153 73.426-44.787 84.341-73.425-9.153-84.34-44.787 9.153-73.426 44.787-84.341z" fill="#b3b6c3"/><path d="M283.918 274.128c22.99-7.042 47.372 5.905 54.414 28.895s-5.906 47.371-28.895 54.413-47.371-5.905-54.413-28.895 5.905-47.371 28.894-54.413z" fill="#fff"/><g class="B"><path d="M318.049 385.553c-18.636 5.708-38.38 3.818-55.594-5.323s-29.839-24.44-35.548-43.076-3.818-38.38 5.324-55.595c14.472-27.253 44.692-42.511 75.198-37.969a5.45 5.45 0 0 1 4.584 6.188 5.45 5.45 0 0 1-6.189 4.584c-25.952-3.865-51.662 9.118-63.975 32.305-7.777 14.645-9.386 31.442-4.529 47.298s15.597 28.87 30.242 36.646a61.67 61.67 0 0 0 47.297 4.529c15.855-4.857 28.87-15.597 36.646-30.242 12.783-24.071 8.534-53.276-10.571-72.676-2.111-2.142-2.084-5.59.059-7.701s5.59-2.084 7.701.059c10.813 10.98 17.77 24.873 20.121 40.179 2.397 15.612-.262 31.258-7.69 45.247-9.141 17.214-24.439 29.838-43.076 35.547zm12.173-124.052a5.43 5.43 0 0 1-4.174-.411l-.255-.136a5.45 5.45 0 0 1-2.256-7.364 5.45 5.45 0 0 1 7.364-2.255l.306.164c2.649 1.424 3.641 4.726 2.216 7.375-.708 1.315-1.878 2.221-3.201 2.627zm-19.078 101.147c-5.021 1.538-10.346 2.282-15.812 2.136-3.006-.08-5.378-2.583-5.298-5.589s2.583-5.38 5.589-5.298c14.58.389 27.884-7.364 34.72-20.237 4.776-8.992 5.764-19.306 2.782-29.042a37.87 37.87 0 0 0-18.57-22.502c-8.993-4.775-19.306-5.763-29.042-2.781s-17.727 9.577-22.502 18.57c-6.772 12.752-5.815 28.016 2.496 39.837 1.73 2.46 1.138 5.857-1.322 7.586s-5.856 1.139-7.586-1.322c-10.683-15.194-11.912-34.816-3.206-51.209 6.139-11.563 16.413-20.041 28.931-23.875a48.68 48.68 0 0 1 37.34 3.575c11.562 6.14 20.041 16.414 23.875 28.931s2.564 25.778-3.576 37.341c-6.225 11.722-16.623 20.143-28.819 23.879zm-33.093-3.071a5.43 5.43 0 0 1-4.126-.386l-.233-.123a5.45 5.45 0 0 1-2.256-7.364 5.45 5.45 0 0 1 7.364-2.256l.188.1c2.663 1.398 3.688 4.689 2.29 7.352a5.43 5.43 0 0 1-3.227 2.677zm72.357 85.62l-25.761 7.89c-8.613 2.639-17.767-2.222-20.405-10.835l-5.026-16.409a109.26 109.26 0 0 1-25.964-2.499l-8.039 15.139a16.23 16.23 0 0 1-9.644 7.958c-4.176 1.279-8.597.854-12.451-1.194l-23.79-12.645a16.36 16.36 0 0 1-6.761-22.088l8.047-15.154a109.22 109.22 0 0 1-16.576-20.1l-16.397 5.022a16.22 16.22 0 0 1-12.45-1.194 16.23 16.23 0 0 1-7.958-9.65l-7.876-25.765c-2.632-8.61 2.23-17.759 10.838-20.396l16.421-5.03c-.2-8.7.637-17.376 2.5-25.89l-15.139-8.039c-3.854-2.048-6.681-5.474-7.959-9.647a16.23 16.23 0 0 1 1.195-12.449l12.645-23.79c4.225-7.952 14.134-10.985 22.087-6.761l15.154 8.047c6.009-6.299 12.724-11.84 20.039-16.537l-5.026-16.407c-2.638-8.613 2.223-17.767 10.836-20.406l25.761-7.89c8.613-2.639 17.767 2.222 20.405 10.835l5.026 16.409c8.691-.205 17.357.624 25.863 2.476l8.047-15.154a16.36 16.36 0 0 1 22.085-6.769l23.8 12.627a16.22 16.22 0 0 1 7.962 9.644c1.279 4.173.857 8.594-1.19 12.449l-8.04 15.139a109.21 109.21 0 0 1 16.572 20.048l16.421-5.03c8.608-2.637 17.761 2.221 20.402 10.827l7.905 25.756c1.281 4.173.86 8.595-1.187 12.451a16.23 16.23 0 0 1-9.646 7.963l-16.396 5.022a109.27 109.27 0 0 1-2.475 25.936l15.154 8.047a16.36 16.36 0 0 1 6.769 22.085l-12.626 23.8c-2.046 3.856-5.471 6.684-9.644 7.962a16.23 16.23 0 0 1-12.449-1.191l-15.139-8.039a109.22 109.22 0 0 1-20.11 16.612l5.027 16.408c2.636 8.613-2.224 17.767-10.837 20.406zm-81.581-33.338a5.44 5.44 0 0 1 2.965-.062 98.46 98.46 0 0 0 31.054 2.988c2.515-.159 4.812 1.43 5.55 3.84l6.26 20.436c.879 2.871 3.931 4.492 6.802 3.612l25.76-7.891c2.871-.879 4.492-3.931 3.612-6.802l-6.259-20.435c-.739-2.41.274-5.012 2.447-6.29a98.48 98.48 0 0 0 24.052-19.869 5.45 5.45 0 0 1 6.642-1.212l18.862 10.016c1.285.682 2.759.823 4.15.397a5.41 5.41 0 0 0 3.214-2.654l12.627-23.8c1.407-2.651.395-5.953-2.256-7.361l-18.874-10.023c-2.225-1.181-3.349-3.736-2.717-6.175 2.631-10.149 3.627-20.588 2.96-31.029-.161-2.517 1.428-4.816 3.84-5.555l20.426-6.256a5.41 5.41 0 0 0 3.215-2.654c.683-1.286.823-2.76.396-4.15l-7.905-25.757c-.88-2.869-3.931-4.487-6.801-3.608l-20.445 6.262c-2.408.738-5.009-.273-6.288-2.444a98.42 98.42 0 0 0-19.834-23.993 5.45 5.45 0 0 1-1.212-6.642l10.016-18.862a5.41 5.41 0 0 0-2.257-7.364l-23.799-12.627c-2.652-1.407-5.954-.396-7.362 2.256l-10.022 18.875c-1.181 2.225-3.736 3.35-6.176 2.717a98.44 98.44 0 0 0-30.96-2.964c-2.516.159-4.812-1.429-5.551-3.84l-6.26-20.436c-.879-2.871-3.931-4.491-6.802-3.612l-25.76 7.891c-2.871.88-4.491 3.931-3.612 6.802l6.26 20.436c.738 2.41-.274 5.012-2.448 6.29a98.47 98.47 0 0 0-23.989 19.795c-1.667 1.89-4.413 2.389-6.638 1.208l-18.873-10.022c-2.652-1.408-5.954-.397-7.363 2.253l-12.645 23.791c-.683 1.285-.824 2.758-.398 4.149a5.41 5.41 0 0 0 2.653 3.216l18.862 10.016c2.227 1.183 3.351 3.74 2.716 6.181-2.638 10.134-3.645 20.558-2.993 30.986.157 2.514-1.431 4.808-3.841 5.546l-20.443 6.262c-2.869.879-4.49 3.929-3.613 6.8l7.877 25.764a5.41 5.41 0 0 0 6.802 3.614l20.427-6.257c2.411-.738 5.014.276 6.291 2.451 5.295 9.023 11.968 17.114 19.831 24.048 1.89 1.667 2.39 4.413 1.208 6.638l-10.022 18.874c-1.408 2.651-.397 5.954 2.253 7.362l23.791 12.645c1.285.683 2.758.824 4.149.398a5.41 5.41 0 0 0 3.216-2.653l10.016-18.862a5.44 5.44 0 0 1 3.216-2.654z"/></g></g><g class="B"><path d="M331.028 101.547l46.069 15.854s31.781-6.692 34.148-47.156c2.41-40.449-35.739-58.435-35.739-58.435-.711 18.016-5.801 18.692-20.98 31.049s-33.75 37.677-23.498 58.688z" fill="#7c5748"/><path d="M359.686 111.409l17.412 5.992s31.782-6.691 34.148-47.156c2.411-40.449-35.738-58.434-35.738-58.434 32.273 36.893-5.32 85.875-15.822 99.598z" fill="#5f4c44"/><path d="M407.419 88.985c1.997-5.238 3.393-11.41 3.827-18.74 2.41-40.449-35.739-58.434-35.739-58.434-.712 18.015-5.801 18.691-20.98 31.048-2.503 2.052-5.126 4.452-7.65 7.129 2.17 2.446 3.834 6.078 3.708 11.522 0 0 14.139-2.418 26.644 1.885 2.997 1.032 5.203 2.665 7.143 4.644 6.184 6.304 9.196 16.179 23.047 20.946z" fill="#00a5f1"/><path d="M407.419 88.985c1.997-5.238 3.393-11.41 3.827-18.74 2.41-40.449-35.739-58.434-35.739-58.434 15.513 17.722 14.878 38.192 8.865 56.228 6.184 6.304 9.196 16.179 23.047 20.946z" fill="#0094d8"/><path d="M321.254 134.516l47.508 16.35a7.21 7.21 0 0 0 9.163-4.472l6.488-18.85a7.21 7.21 0 0 0-4.472-9.164l-47.508-16.349a7.21 7.21 0 0 0-9.163 4.471l-6.488 18.851a7.21 7.21 0 0 0 4.472 9.163z" fill="#c0c9d2"/><path d="M365.308 121.077l-6.42 18.657c-1.314 3.819-5.476 5.849-9.295 4.535l19.072 6.563c3.819 1.314 7.98-.716 9.294-4.535l6.421-18.657c1.314-3.818-.716-7.979-4.535-9.294l-19.072-6.563c3.819 1.314 5.849 5.475 4.535 9.294z" fill="#a6aeba"/><path d="M324.347 135.58c-11.322 7.729-23.596 27.224-38.115 69.412-25.168 73.133-35.058 150.447-16.621 156.791s58.219-60.681 83.387-133.814c14.518-42.188 16.842-65.108 12.674-78.168" fill="#f89e00"/><path d="M336.293 222.22c14.518-42.187 19.332-64.251 19.042-75.976l10.336 3.557c4.169 13.06 1.845 35.979-12.674 78.168-25.168 73.133-64.949 140.158-83.387 133.814 9.214 3.17 41.515-66.43 66.683-139.563z" fill="#d38302"/><path d="M268.259 365.699c7.978 2.746 17.565-3.002 29.311-17.572 9.288-11.519 19.504-28.127 29.666-48.198 1.039-2.053.203-4.563-1.858-5.584a4.15 4.15 0 0 0-5.539 1.851c-24.764 48.965-42.73 63.785-48.883 61.667-4.802-1.652-9.061-15.466-5.268-48.963 3.376-29.812 12.292-67.194 24.461-102.559 12.241-35.571 23.68-57.245 34.909-66.134l37.205 12.804c3.381 13.915-.94 38.038-13.182 73.611-6.071 17.64-13.273 35.637-20.923 52.308-.947 2.063-.045 4.504 2.011 5.467h.001c2.086.978 4.566.064 5.528-2.031a588.05 588.05 0 0 0 21.219-53.047c11.784-34.244 16.388-58.069 14.209-73.928 4.703-.013 9.103-2.957 10.718-7.648l6.487-18.852c1.289-3.745.493-7.707-1.76-10.633 2.175-1.078 4.612-2.487 7.124-4.31a4.15 4.15 0 0 0 .69-6.087h-.001c-1.42-1.623-3.833-1.867-5.58-.603-4.971 3.597-9.556 5.235-11.518 5.826l-43.209-14.869c-5.449-13.415 2.155-29.18 11.956-41.016.302 1.235.446 2.589.409 4.068-.018.708.09 1.422.406 2.055.858 1.719 2.675 2.571 4.43 2.271.131-.023 13.226-2.195 24.597 1.719 4.422 1.521 6.85 4.886 9.924 9.144 3.522 4.882 7.796 10.799 16.226 14.799-.487 1.023-1.008 2.019-1.562 2.987-1.058 1.851-.504 4.206 1.246 5.424l.003.002a4.15 4.15 0 0 0 5.968-1.348c4.508-7.88 7.105-17.207 7.732-27.794 1.046-17.73-5.222-34.16-18.13-47.513-9.647-9.982-19.558-14.717-19.974-14.914a4.15 4.15 0 0 0-3.585.024 4.3 4.3 0 0 0-.332.181c-1.188.72-1.936 1.988-1.992 3.377-.529 13.196-2.91 15.039-12.929 22.801l-6.546 5.17c-9.257 7.544-17.414 17.555-22.381 27.468-5.619 11.215-7.016 21.958-4.146 31.399-.096.044-.195.079-.291.125a11.28 11.28 0 0 0-5.757 6.51l-6.488 18.851c-1.614 4.692.043 9.722 3.743 12.625-11.479 11.161-22.51 32.773-34.294 67.016-12.357 35.912-21.417 73.936-24.859 104.322-3.904 34.496-.269 53.919 10.808 57.731zm88.902-319.624c2.36-1.924 4.499-3.58 6.386-5.042 9.052-7.013 13.907-10.773 15.56-22.321 9.841 6.455 29.701 23.083 28.033 51.325-.283 4.8-1.019 9.281-2.195 13.428-6.063-3.044-9.17-7.346-12.426-11.858-3.461-4.796-7.039-9.755-13.947-12.133-9.004-3.098-18.626-2.998-24.131-2.572-.373-2.353-1.104-4.505-2.184-6.446a76.04 76.04 0 0 1 4.904-4.381zm-36.46 80.626l6.487-18.852c.267-.775.818-1.399 1.555-1.758s1.567-.411 2.343-.143l47.508 16.348c1.6.551 2.453 2.3 1.903 3.899l-6.488 18.851c-.275.8-.849 1.413-1.555 1.758s-1.543.42-2.343.144l-47.509-16.35a3.07 3.07 0 0 1-1.901-3.897z"/></g><clipPath id="C"><path d="M338.743 110.391L329.8 355.224l-244.833-8.943 8.943-244.833 244.833 8.943z"/></clipPath><g clip-path="url(#C)" class="B"><path d="M199.991 236.632l21.148-19.657c2.063-1.919 2.181-5.148.263-7.213l-67.366-72.473.295-8.09a5.1 5.1 0 0 0-2.649-4.663l-40.059-21.893c-1.928-1.052-4.313-.752-5.921.744l-10.574 9.828c-1.61 1.495-2.082 3.852-1.174 5.851l18.912 41.551c.802 1.757 2.527 2.911 4.458 2.982l8.089.295 67.365 72.475c1.919 2.064 5.148 2.182 7.213.263z" fill="#cfd8dc"/><path d="M315.572 345.996l6.207-5.769c11.646-11.351 12.322-29.849 1.535-42.019l-61.852-66.563c-.923-.99-2.203-1.574-3.557-1.621-8.451-.309-15.051-7.41-14.743-15.861.052-1.354-.436-2.672-1.357-3.666l-9.829-10.573c-1.919-2.064-5.147-2.182-7.212-.264l-42.296 39.315c-2.064 1.919-2.182 5.147-.263 7.212l9.828 10.574c.92.992 2.195 1.579 3.547 1.631 8.451.309 15.051 7.41 14.743 15.861-.052 1.354.436 2.673 1.357 3.666l61.862 66.542c11.183 12.019 29.99 12.706 42.02 1.535h.01z" fill="#ff02ad"/><g fill="#c62828"><use xlink:href="#H"/><use xlink:href="#I"/></g><path d="M180.837 242.532c.047-1.354.63-2.634 1.621-3.557l42.296-39.315c2.064-1.918 5.293-1.8 7.212.264l9.829 10.574c.924.991 1.416 2.31 1.367 3.666-.308 8.451 6.292 15.552 14.743 15.86a5.11 5.11 0 0 1 3.557 1.622l61.852 66.552c10.627 12.227 9.956 30.599-1.535 42.019l-6.217 5.779c-12.03 11.171-30.837 10.484-42.02-1.535l-61.861-66.552c-.919-.991-1.407-2.305-1.358-3.656.308-8.451-6.292-15.552-14.743-15.861-1.354-.047-2.634-.63-3.557-1.621l-9.829-10.574a5.1 5.1 0 0 1-1.357-3.665zm47.133-31.917l-34.821 32.366 5.013 5.393c12.293 1.528 21.714 11.663 22.341 24.035l60.515 65.104c7.345 7.891 19.693 8.342 27.595 1.008l6.217-5.78c7.536-7.503 7.976-19.561 1.008-27.594l-60.515-65.104c-12.293-1.527-21.714-11.663-22.341-24.035l-5.012-5.393z"/><path d="M93.496 116.762a5.1 5.1 0 0 1 1.622-3.557l10.573-9.829c1.608-1.496 3.993-1.795 5.921-.743l40.06 21.893a5.1 5.1 0 0 1 2.659 4.673l-.295 8.09 67.366 72.474c1.883 2.097 1.709 5.324-.389 7.208-2.046 1.836-5.18 1.722-7.086-.259l-68.802-74.018a5.11 5.11 0 0 1-1.367-3.666l.257-7.049-34.051-18.61-5.181 4.816 16.076 35.318 7.039.257c1.353.047 2.633.63 3.557 1.622l68.8 74.017c1.883 2.098 1.709 5.325-.389 7.208-2.046 1.837-5.18 1.722-7.086-.259l-67.368-72.453-8.089-.295c-1.93-.071-3.656-1.225-4.457-2.982l-18.912-41.551c-.33-.722-.487-1.511-.458-2.305z"/><use xlink:href="#H"/><use xlink:href="#I"/></g><g class="B"><path d="M562.573 120.232L474.692 327.29c-10.861 25.591-40.411 37.532-66.002 26.671s-37.532-40.412-26.671-66.003L469.9 80.9l92.673 39.332z" fill="#dfe9f4"/><path d="M419.861 198.798l-37.842 89.16c-10.861 25.591 1.08 55.141 26.671 66.002s55.14-1.079 66.002-26.67l53.493-126.037-108.324-2.455z" fill="#24c100"/><path d="M528.18 201.254l-53.499 126.05c-10.864 25.596-40.385 37.525-65.981 26.662-16.865-7.158-27.793-22.426-30.186-39.277 4.202 3.899 9.15 7.192 14.756 9.571 25.596 10.864 55.163-1.045 66.027-26.642l41.172-97.008 27.711.644z" class="F"/><path d="M578.717 120.131l12.276-28.925a6.4 6.4 0 0 0-3.391-8.392L479.425 36.902a6.4 6.4 0 0 0-8.391 3.39l-12.277 28.926a6.4 6.4 0 0 0 3.391 8.392l108.177 45.913c3.253 1.38 7.01-.138 8.392-3.392z" fill="#2dcef6"/><path d="M590.997 91.198l-12.288 28.95c-1.365 3.217-5.116 4.771-8.378 3.386L462.156 77.622c-3.263-1.385-4.751-5.162-3.385-8.378l3.12-7.353 100.179 42.518c3.263 1.385 7.013-.169 8.398-3.431l9.147-21.552 7.996 3.393a6.37 6.37 0 0 1 3.386 8.379z" fill="#1ec5e0"/></g><path d="M523.331 129.908a13.9 13.9 0 0 1 7.359 18.21 13.9 13.9 0 0 1-18.21 7.359 13.9 13.9 0 0 1-7.359-18.21 13.9 13.9 0 0 1 18.21-7.359z" class="F"/><g fill="#dfe9f4"><path d="M470.558 233.05c7.624 3.236 11.187 12.053 7.951 19.677s-12.052 11.186-19.676 7.951-11.187-12.053-7.951-19.677 12.053-11.186 19.676-7.951zm-41.739 59.934c6.059 2.571 8.891 9.579 6.319 15.638s-9.578 8.89-15.638 6.318-8.89-9.578-6.318-15.637 9.578-8.891 15.637-6.319z"/></g><path d="M473.695 150.963a10.36 10.36 0 0 1 5.485 13.576 10.36 10.36 0 0 1-13.575 5.485 10.36 10.36 0 0 1-5.486-13.576 10.36 10.36 0 0 1 13.576-5.485z" class="F"/><g fill="#003" class="B"><path d="M589.555 78.219l-18.628-7.906a4.992 4.992 0 1 0-3.901 9.19l18.628 7.907c.714.302 1.045 1.132.742 1.845l-12.277 28.927c-.303.714-1.128 1.047-1.841.744l-108.18-45.913a1.41 1.41 0 0 1-.748-1.843l12.278-28.928c.302-.713 1.133-1.049 1.847-.746l72.345 30.705a4.992 4.992 0 0 0 3.901-9.191l-72.345-30.705c-5.785-2.455-12.484.252-14.939 6.036L454.16 67.269c-2.454 5.78.253 12.479 6.038 14.934l3.159 1.341-11.156 26.284a4.992 4.992 0 1 0 9.191 3.901l11.156-26.284 83.479 35.43-31.114 73.309-36.489-.826a4.99 4.99 0 0 0-5.1 4.879 4.97 4.97 0 0 0 4.879 5.101l32.511.738-50.618 119.264c-9.769 23.017-36.438 33.794-59.455 24.025s-33.794-36.438-24.025-59.455l36.518-86.042 44.574 1.007a4.99 4.99 0 0 0 5.1-4.879c.067-2.752-2.103-5.039-4.879-5.1l-40.596-.92 25.271-59.541a4.992 4.992 0 1 0-9.191-3.901l-65.987 155.475c-11.919 28.084 1.231 60.627 29.315 72.546s60.627-1.23 72.546-29.314l85.931-202.465 3.159 1.341c5.78 2.453 12.479-.253 14.933-6.034l12.277-28.927c2.455-5.785-.252-12.484-6.032-14.937zm-79.024 81.85c9.585 4.068 20.688-.419 24.757-10.004a18.9 18.9 0 0 0-10.006-24.753c-9.586-4.068-20.689.418-24.755 10s.418 20.688 10.004 24.757zm10.85-25.566a8.91 8.91 0 0 1 4.716 11.662 8.91 8.91 0 0 1-11.666 4.714c-4.514-1.916-6.63-7.152-4.714-11.666a8.91 8.91 0 0 1 11.664-4.71zm-38.274 120.176c4.309-10.151-.447-21.919-10.598-26.228s-21.915.449-26.223 10.6.444 21.913 10.596 26.222 21.917-.443 26.225-10.594zm-22.325 1.403c-5.084-2.158-7.463-8.045-5.305-13.13a10.03 10.03 0 0 1 13.132-5.31c5.084 2.158 7.465 8.052 5.308 13.136a10.03 10.03 0 0 1-13.135 5.304zm-30.014 32.309c-8.585-3.644-18.538.378-22.181 8.963s.378 18.538 8.963 22.182 18.537-.378 22.181-8.963-.378-18.538-8.963-22.182zm-9.318 21.954c-3.518-1.493-5.166-5.571-3.673-9.09a6.94 6.94 0 0 1 9.09-3.673 6.94 6.94 0 0 1 3.673 9.09c-1.493 3.518-5.571 5.166-9.09 3.673zm62.323-143.859c3.305-7.786-.343-16.812-8.128-20.116-7.791-3.307-16.817.341-20.121 8.126s.342 16.812 8.133 20.119a15.36 15.36 0 0 0 20.116-8.129zm-19.059-8.089c1.155-2.719 4.306-3.993 7.03-2.836a5.36 5.36 0 0 1 2.838 7.024c-1.155 2.719-4.305 3.993-7.024 2.839-2.725-1.156-3.998-4.307-2.844-7.027z"/></g></g><g class="B"><path d="M1338.77 177.49l-14.203 208.687 45.422.422 7.453-101.11 23.063 94.782c5.531 6.187 11.859 7.5 18.984 3.937l43.031-97.875-5.765 99.844 45.703-.422 12.797-208.547c-12.563-3.281-25.594-3.187-39.094.282l-57.797 118.406-32.766-118.125c-19.5-5.344-35.109-5.438-46.828-.281zm197.52.984c-3.375 1.594-5.578 4.219-6.609 7.875l-12.657 192.797c.938 5.156 3.422 8.109 7.454 8.859l131.484-5.203c9.938-14.531 11.016-30.094 3.234-46.687l-94.359 2.812 3.797-43.594 76.922-3.234c8.156-12.188 8.718-25.125 1.687-38.813l-75.515 1.547 2.531-36 91.969-2.953c6.187-12.844 6.984-26.625 2.39-41.344l-132.328 3.938zm293.43 16.594c3.281 16.875-1.125 30.375-13.219 40.5-8.156-5.25-20.953-9.422-38.39-12.516-15.282-1.5-27.75 2.93-37.407 13.289s-15.562 23.789-17.718 40.289c-3.188 10.406-1.219 23.766 5.906 40.078 7.125 14.813 17.976 22.641 32.554 23.485s32.04-2.016 52.383-8.578c7.313 14.437 8.016 28.593 2.11 42.468-24.094 11.063-43.641 16.313-58.641 15.75-27.656-3.469-47.812-13.5-60.469-30.094-16.875-22.218-22.593-53.578-17.156-94.078 4.313-32.062 14.484-56.297 30.516-72.703 20.906-16.969 46.265-23.906 76.078-20.812 20.719 1.312 35.203 8.953 43.453 22.922zm15.91-11.11l-12.093 197.578c10.312 7.407 25.546 8.532 45.703 3.375l5.062-85.781 65.953-2.812-4.078 85.922c12.938 7.968 28.078 7.593 45.422-1.125l9.563-200.11c-13.313-7.219-27.188-7.312-41.625-.281l-5.344 73.266-66.797 3.375 4.078-78.61c-16.875-6.469-32.156-4.734-45.844 5.203zm228.11-8.859l-73.688 205.453c10.219 8.719 25.782 11.672 46.688 8.859l12.938-37.968 52.171-6.469 10.125 37.687c20.532 3.938 37.219 1.688 50.063-6.75l-56.25-202.5c-13.219-8.156-27.235-7.593-42.047 1.688zm30.234 130.5l-34.312 4.078 22.078-69.187 12.234 65.109zm81.926-121.641l-12.093 197.578c10.312 7.407 25.547 8.532 45.703 3.375l7.875-115.031 62.859 114.75c16.5 6.563 29.532 5.531 39.094-3.094l12.094-200.531c-13.313-7.219-27.188-7.312-41.625-.281l-6.75 110.812-66.938-113.484c-20.156-5.25-33.562-3.281-40.219 5.906zm154.43 199.125c13.218 6.844 29.39 7.547 48.515 2.11l16.594-206.86c-16.5-4.781-31.875-5.484-46.125-2.109l-18.984 206.859zm222.2-188.015c3.281 16.875-1.125 30.375-13.219 40.5-8.156-5.25-20.953-9.422-38.39-12.516-15.282-1.5-27.75 2.93-37.407 13.289s-15.562 23.789-17.718 40.289c-3.188 10.406-1.219 23.766 5.906 40.078 7.125 14.813 17.976 22.641 32.555 23.485s32.039-2.016 52.382-8.578c7.313 14.437 8.016 28.593 2.11 42.468-24.094 11.063-43.641 16.313-58.641 15.75-27.656-3.469-47.812-13.5-60.469-30.094-16.875-22.218-22.593-53.578-17.156-94.078 4.313-32.062 14.484-56.297 30.516-72.703 20.906-16.969 46.265-23.906 76.078-20.812 20.719 1.312 35.203 8.953 43.453 22.922zm10.08 168.468c-6.093-21.281-2.531-37.781 10.688-49.5 24.094 14.157 41.578 22.875 52.453 26.157 20.25-.188 31.359-5.25 33.328-15.188.469-7.969-5.719-15.656-18.562-23.062l-36.141-17.578c-22.594-12-34.313-28.922-35.156-50.766.843-12.563 5.179-23.859 13.008-33.891s16.64-16.617 26.437-19.758 21.445-4.289 34.945-3.445c24.75 1.5 46.453 8.531 65.11 21.094.75 17.719-4.782 33.141-16.594 46.266-22.781-17.063-41.016-25.032-54.703-23.907-12.844-1.5-19.641 3.094-20.391 13.782-.469 6.093 8.578 13.968 27.141 23.625 21.281 8.625 37.055 18.515 47.32 29.671s14.836 24.704 13.711 40.641c-1.5 21.563-11.531 38.109-30.094 49.641-11.812 8.25-28.875 11.671-51.187 10.265-21.281-2.719-41.719-10.734-61.313-24.047z" fill="#00a5f1"/><path d="M644.827 363.536c-6.094-21.281-2.531-37.781 10.688-49.5 24.093 14.157 41.578 22.875 52.453 26.157 20.25-.188 31.359-5.25 33.328-15.188.469-7.969-5.719-15.656-18.563-23.062l-36.14-17.578c-22.594-12-34.313-28.922-35.157-50.766.844-12.563 5.18-23.859 13.008-33.891s16.641-16.617 26.438-19.758 21.445-4.289 34.945-3.445c24.75 1.5 46.453 8.531 65.109 21.094.75 17.719-4.781 33.141-16.593 46.266-22.782-17.063-41.016-25.032-54.704-23.907-12.843-1.5-19.64 3.094-20.39 13.782-.469 6.093 8.578 13.968 27.14 23.625 21.282 8.625 37.055 18.515 47.321 29.671s14.836 24.704 13.711 40.641c-1.5 21.563-11.532 38.109-30.094 49.641-11.813 8.25-28.875 11.671-51.188 10.265-21.281-2.719-41.718-10.734-61.312-24.047zm160.47-184.64c-9.563 12.281-9.141 27.187 1.266 44.719l51.047-1.125-9.141 161.437c16.969 6.281 32.578 6.375 46.828.281l7.594-163.547 51.89-.703c7.219-15.094 7.594-30.14 1.125-45.14l-150.609 4.078zm178.47-.422c-3.375 1.594-5.578 4.219-6.609 7.875l-12.657 192.797c.938 5.156 3.422 8.109 7.454 8.859l131.484-5.203c9.937-14.531 11.016-30.094 3.234-46.687l-94.359 2.812 3.797-43.594 76.922-3.234c8.156-12.188 8.718-25.125 1.687-38.813l-75.515 1.547 2.531-36 91.969-2.953c6.187-12.844 6.984-26.625 2.39-41.344l-132.328 3.938zm152.313-.984l-14.203 208.687 45.421.422 7.454-101.11 23.062 94.782c5.531 6.187 11.86 7.5 18.985 3.937l43.031-97.875-5.766 99.844 45.703-.422 12.797-208.547c-12.562-3.281-25.594-3.187-39.094.282l-57.796 118.406-32.766-118.125c-19.5-5.344-35.109-5.438-46.828-.281z" fill="currentColor"/></g><defs ><path id="E" d="M78.998 49.805l-32.558 6.92a2.32 2.32 0 0 1-2.75-1.786l-1.96-9.222c-.291-1.369-1.636-2.242-3.005-1.952l-24.19 5.143a2.53 2.53 0 0 0-1.951 3.003l11.328 53.293c.291 1.37 1.636 2.243 3.004 1.952l24.19-5.142c1.369-.291 2.243-1.636 1.952-3.005l-1.961-9.222a2.32 2.32 0 0 1 1.786-2.751l32.558-6.919-6.443-30.312z"/><path id="F" d="M164.359 17.061L72.704 36.542a5.77 5.77 0 0 0-4.443 6.843l9.982 46.963a5.77 5.77 0 0 0 6.843 4.443l110.229-23.429c4.739-1.008 9.577 1.218 11.896 5.472l8.86 16.253a5.78 5.78 0 0 0 7.84 2.308l7.786-3.384c7.942-4.329 11.079-13.3 6.748-21.242l-14.286-26.203c-11.658-21.383-35.978-32.568-59.8-27.505"/><path id="G" d="M553.5 295.445h-497v172.631a7.07 7.07 0 0 0 7.071 7.07h482.858a7.07 7.07 0 0 0 7.071-7.07V295.445z"/><path id="H" d="M241.858 249.868c.098-2.817 2.461-5.022 5.279-4.924a5.1 5.1 0 0 1 3.565 1.631l58.972 63.443c1.955 2.032 1.893 5.262-.138 7.218s-5.262 1.892-7.217-.139l-.121-.129-58.972-63.444a5.11 5.11 0 0 1-1.368-3.656z"/><path id="I" d="M225.997 264.611c.098-2.817 2.461-5.022 5.279-4.924a5.1 5.1 0 0 1 3.565 1.631l58.972 63.444c1.955 2.031 1.893 5.262-.138 7.217s-5.262 1.892-7.217-.139l-.121-.129-58.972-63.444a5.11 5.11 0 0 1-1.368-3.656z"/></defs></svg>
